<?xml version="1.0" encoding="UTF-8" standalone="no"?>
<svg width="22px" height="24px" viewBox="0 0 22 24" version="1.1" xmlns="http://www.w3.org/2000/svg" xmlns:xlink="http://www.w3.org/1999/xlink">
    <title>75 -Trash Can- (Outline)</title>
    <desc>Created with Sketch.</desc>
    <defs></defs>
    <g id="test" stroke="none" stroke-width="1" fill="none" fill-rule="evenodd" stroke-linecap="round" stroke-linejoin="round">
        <g id="step1---1280*900" transform="translate(-22.000000, -253.000000)" stroke="#FF3466" stroke-width="2">
            <g id="left-side-bar">
                <g id="75--Trash-Can--(Outline)" transform="translate(23.000000, 254.000000)">
                    <path d="M18,8 L2,8 C0.895,8 0,7.105 0,6 L0,6 C0,4.895 0.895,4 2,4 L18,4 C19.105,4 20,4.895 20,6 L20,6 C20,7.105 19.105,8 18,8 Z" id="Stroke-568"></path>
                    <path d="M14.2654,22 L5.7344,22 C4.7394,22 3.8954,21.268 3.7544,20.283 L2.0004,8 L18.0004,8 L16.2454,20.283 C16.1044,21.268 15.2604,22 14.2654,22 Z" id="Stroke-569"></path>
                    <path d="M14.541,11 L13.969,15" id="Stroke-570"></path>
                    <path d="M6.0308,15 L5.4588,11" id="Stroke-571"></path>
                    <path d="M3.4286,18 L3.7546,20.283 C3.8956,21.268 4.7396,22 5.7346,22 L14.2656,22 C15.2606,22 16.1046,21.268 16.2456,20.283 L16.5716,18 L3.4286,18 Z" id="Stroke-572"></path>
                    <path d="M10,11 L10,15" id="Stroke-573"></path>
                    <path d="M2,4 L11.137,4 L10.144,0.004 L1.41,2.173 L1.867,4.013 C1.912,4.01 1.954,4 2,4 Z" id="Stroke-574"></path>
                    <polygon id="Stroke-575" points="17.4227 4 17.9997 3 12.8037 0 10.4947 4"></polygon>
                </g>
            </g>
        </g>
    </g>
</svg>
