<?xml version="1.0" encoding="UTF-8" standalone="no"?>
<svg width="22px" height="22px" viewBox="0 0 22 22" version="1.1" xmlns="http://www.w3.org/2000/svg" xmlns:xlink="http://www.w3.org/1999/xlink">
    <!-- Generator: Sketch 44.1 (41455) - http://www.bohemiancoding.com/sketch -->
    <title>75 -Trash Can- (Outline)</title>
    <desc>Created with Sketch.</desc>
    <defs></defs>
    <g id="test" stroke="none" stroke-width="1" fill="none" fill-rule="evenodd" stroke-linecap="round" stroke-linejoin="round">
        <g id="75--Trash-Can--(Outline)" transform="translate(1.000000, 1.000000)" stroke-width="2">
            <path d="M18,7.27272727 L2,7.27272727 C0.895,7.27272727 0,6.45909091 0,5.45454545 L0,5.45454545 C0,4.45 0.895,3.63636364 2,3.63636364 L18,3.63636364 C19.105,3.63636364 20,4.45 20,5.45454545 L20,5.45454545 C20,6.45909091 19.105,7.27272727 18,7.27272727 Z" id="Stroke-568" stroke="#FF3466"></path>
            <path d="M14.2654,20 L5.7344,20 C4.7394,20 3.8954,19.3345455 3.7544,18.4390909 L2.0004,7.27272727 L18.0004,7.27272727 L16.2454,18.4390909 C16.1044,19.3345455 15.2604,20 14.2654,20 Z" id="Stroke-569" stroke="#FF3466" fill="#FF3466"></path>
            <path d="M14.541,10 L13.969,13.6363636" id="Stroke-570" stroke="#FFFFFF"></path>
            <path d="M6.0308,13.6363636 L5.4588,10" id="Stroke-571" stroke="#FFFFFF"></path>
            <path d="M3.4286,16.3636364 L3.7546,18.4390909 C3.8956,19.3345455 4.7396,20 5.7346,20 L14.2656,20 C15.2606,20 16.1046,19.3345455 16.2456,18.4390909 L16.5716,16.3636364 L3.4286,16.3636364 Z" id="Stroke-572" stroke="#FF3466" fill="#FFFFFF"></path>
            <path d="M10,10 L10,13.6363636" id="Stroke-573" stroke="#FFFFFF"></path>
            <path d="M2,3.63636364 L11.137,3.63636364 L10.144,0.00363636364 L1.41,1.97545455 L1.867,3.64818182 C1.912,3.64545455 1.954,3.63636364 2,3.63636364 Z" id="Stroke-574" stroke="#FF3466" fill="#FF3466"></path>
            <polygon id="Stroke-575" stroke="#FF3466" fill="#FF3466" points="17.4227 3.63636364 17.9997 2.72727273 12.8037 0 10.4947 3.63636364"></polygon>
        </g>
    </g>
</svg>