<svg width="22" height="22" viewBox="0 0 22 22" xmlns="http://www.w3.org/2000/svg"><title>75 -Trash Can- (Outline)</title><g stroke="#FF3466" stroke-width="2" fill="none" fill-rule="evenodd" stroke-linecap="round" stroke-linejoin="round"><path d="M19 8.273H3c-1.105 0-2-.814-2-1.818 0-1.005.895-1.819 2-1.819h16c1.105 0 2 .814 2 1.819 0 1.004-.895 1.818-2 1.818z"/><path d="M15.265 21h-8.53c-.996 0-1.84-.665-1.98-1.56L3 8.272h16l-1.755 11.166c-.14.896-.985 1.561-1.98 1.561zm.276-10l-.572 3.636m-7.939 0L6.46 11"/><path d="M4 17l.326 2.075c.141.896.985 1.561 1.98 1.561h8.531c.995 0 1.839-.665 1.98-1.56L17.143 17H4zm7-6v3.636m-8-10h9.137l-.993-3.632L2.41 2.975l.457 1.673c.045-.003.087-.012.133-.012z"/><path d="M18.423 4.636L19 3.727 13.804 1l-2.31 3.636z"/></g></svg>