<?xml version="1.0" encoding="UTF-8" standalone="no"?>
<svg width="14px" height="14px" viewBox="0 0 14 14" version="1.1" xmlns="http://www.w3.org/2000/svg" xmlns:xlink="http://www.w3.org/1999/xlink">
    <!-- Generator: Sketch 44.1 (41455) - http://www.bohemiancoding.com/sketch -->
    <title>Google-only-logo-fill</title>
    <desc>Created with Sketch.</desc>
    <defs></defs>
    <g id="test" stroke="none" stroke-width="1" fill="none" fill-rule="evenodd">
        <g id="signup-step1---1280*800" transform="translate(-565.000000, -422.000000)">
            <g id="signup-ui" transform="translate(450.000000, 124.000000)">
                <g id="signup-bottom-ui" transform="translate(60.000000, 183.000000)">
                    <g id="Group-8" transform="translate(27.000000, 67.000000)">
                        <g id="signup-list">
                            <g id="Group-3" transform="translate(0.000000, 40.000000)">
                                <g id="Google-only-logo-fill" transform="translate(28.000000, 8.000000)">
                                    <g id="super-g" transform="translate(0.500000, 0.500000)">
                                        <path d="M6.5,2.51333333 C7.72055556,2.51333333 8.54388889,3.04055556 9.01333333,3.48111111 L10.8477778,1.69 C9.72111111,0.642777778 8.255,0 6.5,0 C3.95777778,0 1.76222222,1.45888889 0.693333333,3.58222222 L2.795,5.21444444 C3.32222222,3.64722222 4.78111111,2.51333333 6.5,2.51333333 L6.5,2.51333333 Z" id="Shape" fill="#EA4335"></path>
                                        <path d="M12.74,6.64444444 C12.74,6.11 12.6966667,5.72 12.6027778,5.31555556 L6.5,5.31555556 L6.5,7.72777778 L10.0822222,7.72777778 C10.01,8.32722222 9.62,9.23 8.75333333,9.83666667 L10.8044444,11.4255556 C12.0322222,10.2916667 12.74,8.62333333 12.74,6.64444444 L12.74,6.64444444 Z" id="Shape" fill="#4285F4"></path>
                                        <path d="M2.80222222,7.78555556 C2.665,7.38111111 2.58555556,6.94777778 2.58555556,6.5 C2.58555556,6.05222222 2.665,5.61888889 2.795,5.21444444 L0.693333333,3.58222222 C0.252777778,4.46333333 0,5.45277778 0,6.5 C0,7.54722222 0.252777778,8.53666667 0.693333333,9.41777778 L2.80222222,7.78555556 L2.80222222,7.78555556 Z" id="Shape" fill="#FBBC05"></path>
                                        <path d="M6.5,13 C8.255,13 9.72833333,12.4222222 10.8044444,11.4255556 L8.75333333,9.83666667 C8.20444444,10.2194444 7.46777778,10.4866667 6.5,10.4866667 C4.78111111,10.4866667 3.32222222,9.35277778 2.80222222,7.78555556 L0.700555556,9.41777778 C1.76944444,11.5411111 3.95777778,13 6.5,13 L6.5,13 Z" id="Shape" fill="#34A853"></path>
                                        <polygon id="Shape" points="0 0 13 0 13 13 0 13"></polygon>
                                    </g>
                                </g>
                            </g>
                        </g>
                    </g>
                </g>
            </g>
        </g>
    </g>
</svg>