<?xml version="1.0" encoding="UTF-8" standalone="no"?>
<svg width="27px" height="27px" viewBox="0 0 27 27" version="1.1" xmlns="http://www.w3.org/2000/svg" xmlns:xlink="http://www.w3.org/1999/xlink">
    <!-- Generator: Sketch 44.1 (41455) - http://www.bohemiancoding.com/sketch -->
    <title>Google</title>
    <desc>Created with Sketch.</desc>
    <defs>
        <linearGradient x1="9.02855778%" y1="0%" x2="87.5239259%" y2="100%" id="linearGradient-1">
            <stop stop-color="#4285F4" offset="0%"></stop>
            <stop stop-color="#34A853" offset="34.0935325%"></stop>
            <stop stop-color="#FBBC05" offset="68.4371611%"></stop>
            <stop stop-color="#EB4C3E" offset="100%"></stop>
        </linearGradient>
    </defs>
    <g id="test" stroke="none" stroke-width="1" fill="none" fill-rule="evenodd">
        <g id="login-step2---1280*800" transform="translate(-704.000000, -27.000000)">
            <g id="social-login-color" transform="translate(675.000000, 28.000000)">
                <g id="Google" transform="translate(30.000000, 0.000000)">
                    <path d="M0,12.5 C0,5.59644029 5.59644029,0 12.5,0 C19.4035597,0 25,5.59644029 25,12.5 C25,19.4035597 19.4035597,25 12.5,25 C5.59644029,25 0,19.4035597 0,12.5 Z" id="back" stroke="url(#linearGradient-1)" fill="#FFFFFF"></path>
                    <g id="super-g" transform="translate(7.083333, 7.083333)">
                        <path d="M5.41666667,2.09444444 C6.4337963,2.09444444 7.11990741,2.5337963 7.51111111,2.90092593 L9.03981481,1.40833333 C8.10092593,0.535648148 6.87916667,0 5.41666667,0 C3.29814815,0 1.46851852,1.21574074 0.577777778,2.98518519 L2.32916667,4.34537037 C2.76851852,3.03935185 3.98425926,2.09444444 5.41666667,2.09444444 L5.41666667,2.09444444 Z" id="Shape" fill="#EA4335"></path>
                        <path d="M10.6166667,5.53703704 C10.6166667,5.09166667 10.5805556,4.76666667 10.5023148,4.42962963 L5.41666667,4.42962963 L5.41666667,6.43981481 L8.40185185,6.43981481 C8.34166667,6.93935185 8.01666667,7.69166667 7.29444444,8.19722222 L9.0037037,9.5212963 C10.0268519,8.57638889 10.6166667,7.18611111 10.6166667,5.53703704 L10.6166667,5.53703704 Z" id="Shape" fill="#4285F4"></path>
                        <path d="M2.33518519,6.48796296 C2.22083333,6.15092593 2.15462963,5.78981481 2.15462963,5.41666667 C2.15462963,5.04351852 2.22083333,4.68240741 2.32916667,4.34537037 L0.577777778,2.98518519 C0.210648148,3.71944444 0,4.54398148 0,5.41666667 C0,6.28935185 0.210648148,7.11388889 0.577777778,7.84814815 L2.33518519,6.48796296 L2.33518519,6.48796296 Z" id="Shape" fill="#FBBC05"></path>
                        <path d="M5.41666667,10.8333333 C6.87916667,10.8333333 8.10694444,10.3518519 9.0037037,9.5212963 L7.29444444,8.19722222 C6.83703704,8.5162037 6.22314815,8.73888889 5.41666667,8.73888889 C3.98425926,8.73888889 2.76851852,7.79398148 2.33518519,6.48796296 L0.583796296,7.84814815 C1.47453704,9.61759259 3.29814815,10.8333333 5.41666667,10.8333333 L5.41666667,10.8333333 Z" id="Shape" fill="#34A853"></path>
                        <polygon id="Shape" points="0 0 10.8333333 0 10.8333333 10.8333333 0 10.8333333"></polygon>
                    </g>
                </g>
            </g>
        </g>
    </g>
</svg>