<?xml version="1.0" encoding="UTF-8" standalone="no"?>
<svg width="20px" height="18px" viewBox="0 0 20 18" version="1.1" xmlns="http://www.w3.org/2000/svg" xmlns:xlink="http://www.w3.org/1999/xlink">
    <!-- Generator: Sketch 44.1 (41455) - http://www.bohemiancoding.com/sketch -->
    <title>Path</title>
    <desc>Created with Sketch.</desc>
    <defs></defs>
    <g id="Page-1" stroke="none" stroke-width="1" fill="none" fill-rule="evenodd" stroke-linejoin="round">
        <g id="nlist-step1-1280*800" transform="translate(-716.000000, -400.000000)" stroke="#FF698E">
            <g id="Group-5" transform="translate(207.000000, 146.000000)">
                <g id="Group-8" transform="translate(0.000000, -5.000000)">
                    <g id="Group-7">
                        <g id="social-card" transform="translate(480.000000, 5.000000)">
                            <g id="Group-4" transform="translate(30.000000, 255.000000)">
                                <path d="M13.05,0 C10.3661312,4.02455846e-16 9,2.23923445 9,2.23923445 C9,2.23923445 7.65,0 4.95,0 C2.7,2.4492936e-16 -3.75455466e-14,1.79138756 -2.13162821e-14,4.92631579 C-2.13162821e-15,8.50909091 2.7,12.091866 8.78461538,15.954067 C8.85326851,15.9976445 8.93846154,16 9.01538462,16 C9.09230769,16 9.17762318,15.9977878 9.24615385,15.954067 C15.3,12.091866 18,8.50909091 18,4.92631579 C18,1.79138756 15.3884615,-3.46944695e-16 13.05,0 Z" id="Path"></path>
                            </g>
                        </g>
                    </g>
                </g>
            </g>
        </g>
    </g>
</svg>