<?xml version="1.0" encoding="UTF-8" standalone="no"?>
<svg width="20px" height="19px" viewBox="0 0 20 19" version="1.1" xmlns="http://www.w3.org/2000/svg" xmlns:xlink="http://www.w3.org/1999/xlink">
    <!-- Generator: Sketch 44.1 (41455) - http://www.bohemiancoding.com/sketch -->
    <title>kakaotalk-only-logo-fill</title>
    <desc>Created with Sketch.</desc>
    <defs></defs>
    <g id="test" stroke="none" stroke-width="1" fill="none" fill-rule="evenodd">
        <g id="signup-step1---1280*800" transform="translate(-562.000000, -460.000000)">
            <g id="signup-ui" transform="translate(450.000000, 124.000000)">
                <g id="signup-bottom-ui" transform="translate(60.000000, 183.000000)">
                    <g id="Group-8" transform="translate(27.000000, 67.000000)">
                        <g id="signup-list">
                            <g id="Group-2" transform="translate(0.000000, 80.000000)">
                                <g id="kakaotalk-only-logo-fill" transform="translate(25.000000, 6.000000)">
                                    <path d="M10,6.16885605e-05 C4.4772,6.16885605e-05 0,3.53946169 0,7.90566169 C0,10.7472617 1.897,13.2384617 4.7442,14.6318617 C4.535,15.4124617 3.9868,17.4604617 3.8772,17.8986617 C3.7412,18.4424617 4.076,18.4354617 4.2956,18.2890617 C4.4676,18.1744617 7.0356,16.4282617 8.144,15.6746617 C8.7454,15.7638617 9.3658,15.8110617 10,15.8110617 C15.5228,15.8110617 20,12.2716617 20,7.90566169 C20,3.53946169 15.5228,6.16885605e-05 10,6.16885605e-05" id="Page-1" fill="#3C1E1E"></path>
                                    <text id="TALK" font-family="AppleSDGothicNeo-Bold, Apple SD Gothic Neo" font-size="7" font-weight="bold" letter-spacing="-0.700000048" fill="#FFEB00">
                                        <tspan x="3.2" y="10.5">TAL</tspan>
                                        <tspan x="13.3359999" y="10.5" letter-spacing="-0.816666722">K</tspan>
                                    </text>
                                </g>
                            </g>
                        </g>
                    </g>
                </g>
            </g>
        </g>
    </g>
</svg>