<?xml version="1.0" encoding="UTF-8" standalone="no"?>
<svg width="27px" height="27px" viewBox="0 0 27 27" version="1.1" xmlns="http://www.w3.org/2000/svg" xmlns:xlink="http://www.w3.org/1999/xlink">
    <!-- Generator: Sketch 44.1 (41455) - http://www.bohemiancoding.com/sketch -->
    <title>kakaotalk-blur</title>
    <desc>Created with Sketch.</desc>
    <defs></defs>
    <g id="test" stroke="none" stroke-width="1" fill="none" fill-rule="evenodd">
        <g id="login-step1---1280*800" transform="translate(-994.000000, -27.000000)">
            <g id="social-login" transform="translate(935.000000, 28.000000)">
                <g id="kakaotalk-blur" transform="translate(60.000000, 0.000000)">
                    <path d="M0,12.5 C0,5.59644029 5.59644029,0 12.5,0 C19.4035597,0 25,5.59644029 25,12.5 C25,19.4035597 19.4035597,25 12.5,25 C5.59644029,25 0,19.4035597 0,12.5 Z" id="back" stroke="#F8F8F8" fill="#FFFFFF"></path>
                    <path d="M12.3333333,5.00005141 C7.731,5.00005141 4,7.94955141 4,11.5880514 C4,13.9560514 5.58083333,16.0320514 7.9535,17.1932181 C7.77916667,17.8437181 7.32233333,19.5503847 7.231,19.9155514 C7.11766667,20.3687181 7.39666667,20.3628847 7.57966667,20.2408847 C7.723,20.1453847 9.863,18.6902181 10.7866667,18.0622181 C11.2878333,18.1365514 11.8048333,18.1758847 12.3333333,18.1758847 C16.9356667,18.1758847 20.6666667,15.2263847 20.6666667,11.5880514 C20.6666667,7.94955141 16.9356667,5.00005141 12.3333333,5.00005141" id="Page-1" stroke="#F8F8F8" fill="#FFFFFF"></path>
                    <text id="TALK" font-family="AppleSDGothicNeo-Bold, Apple SD Gothic Neo" font-size="6" font-weight="bold" letter-spacing="-0.600000024" fill="#F8F8F8">
                        <tspan x="6" y="14">TAL</tspan>
                        <tspan x="14.6879999" y="14" letter-spacing="-0.720000029">K</tspan>
                    </text>
                </g>
            </g>
        </g>
    </g>
</svg>