<?xml version="1.0" encoding="UTF-8" standalone="no"?>
<svg width="27px" height="27px" viewBox="0 0 27 27" version="1.1" xmlns="http://www.w3.org/2000/svg" xmlns:xlink="http://www.w3.org/1999/xlink">
    <!-- Generator: Sketch 44.1 (41455) - http://www.bohemiancoding.com/sketch -->
    <title>kakaotalk</title>
    <desc>Created with Sketch.</desc>
    <defs></defs>
    <g id="test" stroke="none" stroke-width="1" fill="none" fill-rule="evenodd">
        <g id="login-step2---1280*800" transform="translate(-734.000000, -27.000000)">
            <g id="social-login-color" transform="translate(675.000000, 28.000000)">
                <g id="kakaotalk" transform="translate(60.000000, 0.000000)">
                    <path d="M0,12.5 C0,5.59644029 5.59644029,0 12.5,0 C19.4035597,0 25,5.59644029 25,12.5 C25,19.4035597 19.4035597,25 12.5,25 C5.59644029,25 0,19.4035597 0,12.5 Z" id="back" stroke="#FFEB00" fill="#FFFFFF"></path>
                    <path d="M12.5,5.00005141 C7.89766667,5.00005141 4.16666667,7.94955141 4.16666667,11.5880514 C4.16666667,13.9560514 5.7475,16.0320514 8.12016667,17.1932181 C7.94583333,17.8437181 7.489,19.5503847 7.39766667,19.9155514 C7.28433333,20.3687181 7.56333333,20.3628847 7.74633333,20.2408847 C7.88966667,20.1453847 10.0296667,18.6902181 10.9533333,18.0622181 C11.4545,18.1365514 11.9715,18.1758847 12.5,18.1758847 C17.1023333,18.1758847 20.8333333,15.2263847 20.8333333,11.5880514 C20.8333333,7.94955141 17.1023333,5.00005141 12.5,5.00005141" id="Page-1" fill="#3C1E1E"></path>
                    <text id="TALK" font-family="AppleSDGothicNeo-Bold, Apple SD Gothic Neo" font-size="6" font-weight="bold" letter-spacing="-0.600000024" fill="#FFEB00">
                        <tspan x="6" y="14">TAL</tspan>
                        <tspan x="14.6879999" y="14" letter-spacing="-0.720000029">K</tspan>
                    </text>
                </g>
            </g>
        </g>
    </g>
</svg>